HIERARCHY
ROOT Hips
{
	OFFSET -0.001795 -0.223333 0.028219
	CHANNELS 6 Xposition Yposition Zposition Zrotation Yrotation Xrotation 
	JOINT LeftUpLeg
	{
		OFFSET 0.069520 -0.091406 -0.006815
		CHANNELS 3 Zrotation Yrotation Xrotation
		JOINT LeftLeg
		{
			OFFSET 0.034277 -0.375199 -0.004496
			CHANNELS 3 Zrotation Yrotation Xrotation
			JOINT LeftFoot
			{
				OFFSET -0.013596 -0.397961 -0.043693
				CHANNELS 3 Zrotation Yrotation Xrotation
				JOINT LeftToe
				{
					OFFSET 0.026358 -0.055791 0.119288
					CHANNELS 3 Zrotation Yrotation Xrotation
					End Site
					{
						OFFSET 0.000000 0.000000 0.000000
					}
				}
			}
		}
	}
	JOINT RightUpLeg
	{
		OFFSET -0.067670 -0.090522 -0.004320
		CHANNELS 3 Zrotation Yrotation Xrotation
		JOINT RightLeg
		{
			OFFSET -0.038290 -0.382569 -0.008850
			CHANNELS 3 Zrotation Yrotation Xrotation
			JOINT RightFoot
			{
				OFFSET 0.015774 -0.398415 -0.042312
				CHANNELS 3 Zrotation Yrotation Xrotation
				JOINT RightToe
				{
					OFFSET -0.025372 -0.048144 0.123348
					CHANNELS 3 Zrotation Yrotation Xrotation
					End Site
					{
						OFFSET 0.000000 0.000000 0.000000
					}
				}
			}
		}
	}
	JOINT Spine
	{
		OFFSET -0.002533 0.108963 -0.026696
		CHANNELS 3 Zrotation Yrotation Xrotation
		JOINT Spine1
		{
			OFFSET 0.005487 0.135180 0.001092
			CHANNELS 3 Zrotation Yrotation Xrotation
			JOINT Spine2
			{
				OFFSET 0.001457 0.052922 0.025425
				CHANNELS 3 Zrotation Yrotation Xrotation
				JOINT Neck
				{
					OFFSET -0.002778 0.213870 -0.042857
					CHANNELS 3 Zrotation Yrotation Xrotation
					JOINT Head
					{
						OFFSET 0.005152 0.064970 0.051349
						CHANNELS 3 Zrotation Yrotation Xrotation
						End Site
						{
							OFFSET 0.000000 0.000000 0.000000
						}
					}
				}
				JOINT LeftShoulder
				{
					OFFSET 0.078845 0.121749 -0.034090
					CHANNELS 3 Zrotation Yrotation Xrotation
					JOINT LeftArm
					{
						OFFSET 0.090977 0.030469 -0.008868
						CHANNELS 3 Zrotation Yrotation Xrotation
						JOINT LeftForeArm
						{
							OFFSET 0.259612 -0.012772 -0.027456
							CHANNELS 3 Zrotation Yrotation Xrotation
							JOINT LeftHand
							{
								OFFSET 0.249234 0.008986 -0.001171
								CHANNELS 3 Zrotation Yrotation Xrotation
								End Site
								{
									OFFSET 0.000000 0.000000 0.000000
								}
							}
						}
					}
				}
				JOINT RightShoulder
				{
					OFFSET -0.081759 0.118833 -0.038615
					CHANNELS 3 Zrotation Yrotation Xrotation
					JOINT RightArm
					{
						OFFSET -0.096012 0.032551 -0.009143
						CHANNELS 3 Zrotation Yrotation Xrotation
						JOINT RightForeArm
						{
							OFFSET -0.253742 -0.013329 -0.021401
							CHANNELS 3 Zrotation Yrotation Xrotation
							JOINT RightHand
							{
								OFFSET -0.255298 0.007772 -0.005559
								CHANNELS 3 Zrotation Yrotation Xrotation
								End Site
								{
									OFFSET 0.000000 0.000000 0.000000
								}
							}
						}
					}
				}
			}
		}
	}
}
MOTION
Frames: 17
Frame Time: 0.050000
-0.034989 0.948453 -0.072461 5.010172 -11.397089 9.844324 -0.516229 -1.247892 -14.811055 2.689142 -0.443625 2.346235 -2.270930 -0.745555 11.738865 0.000000 0.000000 0.000000 -6.302648 1.019829 -11.403503 -6.889190 0.009832 -6.236168 -1.110501 -10.590463 17.964049 0.000000 0.000000 0.000000 9.226608 -0.728971 3.500370 -4.229782 1.954130 -1.178514 -3.347409 15.182515 3.989239 18.098818 -9.238367 -15.748964 0.000000 0.000000 0.000000 -3.508227 -18.706588 5.864247 -39.204707 -25.190716 3.250346 -103.925786 -73.596056 86.659134 0.000000 0.000000 0.000000 -6.168889 17.676276 5.633000 27.049143 29.950863 3.574055 -0.709755 69.013313 5.432451 0.000000 0.000000 0.000000 
-0.035304 0.948625 -0.073613 5.034407 -10.399870 9.593740 -0.498938 -1.254629 -14.718550 2.593107 -0.435128 2.477285 -2.971406 -1.824773 11.668161 0.000000 0.000000 0.000000 -6.221477 0.966322 -10.840213 -7.058700 0.010763 -6.369739 -1.362515 -10.965030 18.477307 0.000000 0.000000 0.000000 8.928667 -0.701613 3.411842 -3.873059 1.809949 -0.764001 -3.481376 14.906859 3.706787 18.115659 -9.283196 -15.540695 0.000000 0.000000 0.000000 -3.505445 -18.206905 5.647565 -38.321864 -25.419724 3.241166 -110.347191 -72.906306 92.425615 0.000000 0.000000 0.000000 -4.732175 17.378699 5.811628 27.067137 30.811719 3.756038 -4.334598 67.245957 2.868746 0.000000 0.000000 0.000000 
-0.035600 0.948798 -0.074793 4.929083 -10.000703 9.386744 -0.365011 -1.252631 -14.813732 2.579006 -0.457065 3.006005 -3.044973 -1.899975 11.658264 0.000000 0.000000 0.000000 -6.039267 0.928542 -10.320810 -6.970779 -0.014485 -6.647656 -1.655330 -11.391460 18.611310 0.000000 0.000000 0.000000 8.735160 -0.685395 3.388750 -3.661671 1.714341 -0.698859 -3.416849 15.143144 3.808436 17.963878 -9.301774 -15.105953 0.000000 0.000000 0.000000 -3.332306 -17.629889 5.403861 -37.489624 -25.612900 3.184168 -118.674913 -72.984827 101.316981 0.000000 0.000000 0.000000 -3.653150 17.010643 5.894589 27.581532 31.197147 3.918095 -8.318878 65.724410 0.349211 0.000000 0.000000 0.000000 
-0.035661 0.948832 -0.076066 4.892452 -9.256384 9.221771 -0.218167 -1.257829 -14.952145 2.630893 -0.483054 3.413565 -3.288070 -2.314443 11.386074 0.000000 0.000000 0.000000 -5.987068 0.890577 -9.893792 -7.029244 -0.026733 -6.853336 -1.969837 -11.840784 18.960468 0.000000 0.000000 0.000000 8.625338 -0.694383 3.509486 -3.702965 1.746762 -0.356940 -3.317790 15.016001 3.504254 17.823648 -9.394896 -14.441153 0.000000 0.000000 0.000000 -2.902184 -17.361639 5.299441 -36.769244 -25.866504 3.170391 -128.025512 -72.721468 111.539808 0.000000 0.000000 0.000000 -2.579365 16.771356 6.033919 28.102931 31.204396 4.004422 -11.352268 65.442521 -1.489417 0.000000 0.000000 0.000000 
-0.035688 0.949096 -0.077359 4.947685 -8.590565 8.921930 -0.175051 -1.256955 -14.851351 2.625129 -0.495694 3.700156 -3.584537 -2.691491 11.504154 0.000000 0.000000 0.000000 -6.085712 0.849025 -9.430563 -6.746724 -0.040141 -6.930516 -2.417158 -12.457327 19.124981 0.000000 0.000000 0.000000 8.387589 -0.701614 3.735820 -3.449665 1.642573 0.038145 -3.443807 15.116841 3.165822 17.862930 -9.495117 -14.079568 0.000000 0.000000 0.000000 -2.823303 -17.084804 5.157344 -36.310029 -26.057035 3.183577 -133.021920 -72.619736 117.021078 0.000000 0.000000 0.000000 -1.456892 16.588809 6.217009 28.563740 30.845944 3.980959 -14.552760 66.102528 -3.380330 0.000000 0.000000 0.000000 
-0.035593 0.949419 -0.078539 4.947512 -8.231643 8.758297 0.013492 -1.238179 -14.793624 2.558099 -0.494727 3.892881 -3.768678 -2.994761 11.412394 0.000000 0.000000 0.000000 -6.099088 0.833383 -9.285327 -6.487348 -0.047053 -6.926692 -2.630767 -12.712261 19.061178 0.000000 0.000000 0.000000 8.381846 -0.742785 4.127972 -3.550577 1.685728 -0.039692 -3.217660 15.181019 3.139779 17.960062 -9.673367 -13.710279 0.000000 0.000000 0.000000 -3.098110 -16.953831 5.074785 -35.742227 -25.797885 3.072035 -134.735100 -72.705452 119.048964 0.000000 0.000000 0.000000 -0.589072 16.462823 6.359588 29.620957 30.605133 4.104103 -15.359004 67.733061 -3.905520 0.000000 0.000000 0.000000 
-0.035368 0.949537 -0.079532 5.097731 -8.083007 8.738834 -0.027641 -1.246239 -14.803294 2.570144 -0.498783 3.939335 -3.990871 -3.296063 11.560296 0.000000 0.000000 0.000000 -6.278085 0.824167 -9.193790 -6.300004 -0.061420 -7.022741 -2.870926 -13.076930 19.167458 0.000000 0.000000 0.000000 8.312307 -0.757351 4.297357 -3.503676 1.678320 0.347201 -3.169338 15.079518 2.698900 17.862583 -9.696733 -13.374802 0.000000 0.000000 0.000000 -3.225983 -16.794670 5.004624 -35.407429 -25.499814 2.999698 -133.488690 -73.267842 118.043444 0.000000 0.000000 0.000000 -0.134869 16.730146 6.568649 31.156920 30.504782 4.409225 -15.727081 69.617102 -4.247732 0.000000 0.000000 0.000000 
-0.034977 0.949338 -0.080299 5.265032 -8.225351 8.761562 -0.181297 -1.254218 -14.703520 2.639180 -0.492787 3.589863 -3.895111 -3.095874 11.700921 0.000000 0.000000 0.000000 -6.528738 0.823734 -9.177208 -6.238359 -0.077670 -7.180839 -2.915118 -13.219282 19.453707 0.000000 0.000000 0.000000 8.144739 -0.759682 4.416597 -3.593446 1.725504 0.451755 -2.968794 15.075044 2.476524 17.813424 -9.809103 -12.930629 0.000000 0.000000 0.000000 -3.551228 -17.165326 5.123882 -35.128131 -24.764966 2.819398 -130.379503 -73.901776 115.041772 0.000000 0.000000 0.000000 0.384882 17.012021 6.789868 32.459934 30.425243 4.651645 -13.079470 71.336875 -2.522223 0.000000 0.000000 0.000000 
-0.034441 0.949072 -0.080852 5.401323 -8.586139 8.851552 -0.359729 -1.245289 -14.382755 2.724618 -0.480567 3.070589 -3.675979 -2.791215 11.648309 0.000000 0.000000 0.000000 -6.654054 0.834518 -9.272552 -6.217646 -0.097398 -7.395493 -2.787645 -13.056526 19.342769 0.000000 0.000000 0.000000 8.160510 -0.759635 4.402060 -3.692146 1.775320 0.475973 -2.869175 15.141380 2.274716 18.024020 -10.041507 -12.678028 0.000000 0.000000 0.000000 -3.341942 -17.023372 5.094955 -35.379131 -24.460421 2.771764 -125.195987 -74.388320 109.550464 0.000000 0.000000 0.000000 0.788570 17.096770 6.904860 33.706166 30.241017 4.857025 -6.903223 73.069404 1.894188 0.000000 0.000000 0.000000 
-0.033861 0.948646 -0.081338 5.635140 -8.735994 8.782125 -0.559848 -1.242914 -14.082050 2.690172 -0.452760 2.593049 -3.500295 -2.347850 12.091713 0.000000 0.000000 0.000000 -7.037776 0.832940 -9.265371 -6.046134 -0.095742 -7.305306 -2.805464 -13.044211 19.066394 0.000000 0.000000 0.000000 8.100663 -0.769063 4.548362 -3.699534 1.774054 0.351379 -2.856884 15.124741 1.988544 18.390551 -10.369709 -12.455529 0.000000 0.000000 0.000000 -3.189937 -17.424533 5.252986 -35.448144 -24.098531 2.699066 -121.826298 -75.383253 106.779162 0.000000 0.000000 0.000000 0.928901 17.114115 6.938812 34.585066 29.877129 4.944694 0.612971 74.260012 7.557243 0.000000 0.000000 0.000000 
-0.033309 0.948407 -0.081891 5.813908 -8.639943 8.820049 -0.721214 -1.242018 -13.836290 2.594118 -0.410631 2.005183 -3.507549 -2.249087 12.361538 0.000000 0.000000 0.000000 -7.307399 0.838414 -9.450213 -6.098471 -0.061888 -6.915339 -2.666933 -12.713263 18.600351 0.000000 0.000000 0.000000 8.110072 -0.768608 4.518448 -3.637872 1.743551 0.340447 -2.760421 14.761456 1.946512 18.519549 -10.423371 -12.593577 0.000000 0.000000 0.000000 -2.984199 -17.652599 5.374885 -35.741170 -24.187866 2.747070 -118.307806 -76.457685 104.163512 0.000000 0.000000 0.000000 0.407377 17.129830 6.811927 35.367805 29.294362 4.965263 8.913086 74.896193 13.890600 0.000000 0.000000 0.000000 
-0.032923 0.948214 -0.082592 5.836562 -8.930675 8.992042 -0.757840 -1.231503 -13.702624 2.846520 -0.413406 1.392661 -3.482905 -2.039306 12.940509 0.000000 0.000000 0.000000 -7.628040 0.866148 -9.956873 -5.712133 -0.038331 -6.430698 -2.696997 -12.673360 17.986202 0.000000 0.000000 0.000000 8.040421 -0.752686 4.386861 -3.232369 1.538556 -0.001343 -2.876635 14.649255 2.295726 19.147234 -10.706367 -13.130539 0.000000 0.000000 0.000000 -2.727933 -17.700470 5.433565 -36.022666 -24.317922 2.761077 -114.959887 -77.665644 101.967462 0.000000 0.000000 0.000000 -0.138722 17.213464 6.712170 35.661681 29.418961 5.074769 14.136480 74.428496 17.669554 0.000000 0.000000 0.000000 
-0.032572 0.948068 -0.083681 5.689233 -9.112734 8.969467 -0.610909 -1.209104 -13.633251 2.806920 -0.395104 1.126295 -3.215216 -1.632913 12.913020 0.000000 0.000000 0.000000 -7.560610 0.872348 -10.000382 -5.689543 -0.042563 -6.462506 -2.585863 -12.534482 18.016696 0.000000 0.000000 0.000000 8.246286 -0.771728 4.458596 -3.288537 1.565873 -0.003305 -2.606136 14.347298 2.640864 19.360784 -10.891367 -13.154938 0.000000 0.000000 0.000000 -2.562794 -18.452424 5.752725 -36.379040 -24.730045 2.875005 -114.968147 -79.336735 103.997365 0.000000 0.000000 0.000000 -1.113228 17.473513 6.581345 35.504857 29.074204 4.954189 16.216740 74.455237 19.127992 0.000000 0.000000 0.000000 
-0.032096 0.948205 -0.085354 5.517953 -9.342616 9.182938 -0.563851 -1.205296 -13.696511 2.765605 -0.375281 0.835943 -2.931687 -1.057927 13.325568 0.000000 0.000000 0.000000 -7.600441 0.891306 -10.254686 -5.761421 -0.053180 -6.612116 -2.367124 -12.264337 18.175566 0.000000 0.000000 0.000000 8.280458 -0.754985 4.250915 -2.875282 1.374441 0.060176 -2.581076 13.867139 2.940080 19.549935 -10.952075 -13.484814 0.000000 0.000000 0.000000 -2.831991 -18.680516 5.887235 -36.879821 -24.914339 2.965181 -115.486461 -80.171458 105.802522 0.000000 0.000000 0.000000 -2.041759 18.083687 6.593875 34.835878 29.444647 4.933882 13.603816 73.350296 16.540440 0.000000 0.000000 0.000000 
-0.031421 0.948221 -0.087540 5.411679 -9.544715 9.269347 -0.444733 -1.201184 -13.844049 2.560548 -0.346890 0.770844 -2.431694 -0.206915 13.515468 0.000000 0.000000 0.000000 -7.503108 0.912683 -10.572864 -6.013027 -0.038995 -6.537260 -2.042686 -11.783183 18.145434 0.000000 0.000000 0.000000 8.390877 -0.788401 4.490701 -2.894521 1.379187 -0.074391 -2.591059 13.514111 3.018833 19.863690 -11.102151 -13.748522 0.000000 0.000000 0.000000 -3.008481 -19.364155 6.177498 -37.860695 -25.329675 3.194573 -114.766680 -81.275283 106.426955 0.000000 0.000000 0.000000 -2.812042 18.570960 6.603033 33.357143 30.015863 4.807866 6.079408 72.020836 10.447103 0.000000 0.000000 0.000000 
-0.030679 0.948526 -0.090013 5.295759 -10.037736 9.308032 -0.325033 -1.188369 -13.920194 2.362713 -0.317234 0.640754 -1.771647 0.840423 13.654597 0.000000 0.000000 0.000000 -7.388442 0.941590 -10.911924 -6.151946 -0.049002 -6.693305 -1.723934 -11.304273 17.922135 0.000000 0.000000 0.000000 8.639313 -0.859180 5.013906 -3.082571 1.460152 -0.307885 -2.657792 12.905273 3.004933 20.198156 -11.408111 -13.643990 0.000000 0.000000 0.000000 -3.737557 -19.527228 6.325727 -38.601603 -25.592575 3.386041 -115.587206 -81.523932 108.082042 0.000000 0.000000 0.000000 -3.665340 19.554850 6.763779 31.139761 31.194207 4.660373 -3.368503 70.099161 3.168736 0.000000 0.000000 0.000000 
-0.030100 0.948404 -0.092451 5.198566 -10.499157 9.615095 -0.265918 -1.186248 -14.077208 2.497824 -0.317400 0.284365 -1.292038 1.726569 14.299915 0.000000 0.000000 0.000000 -7.429620 0.988325 -11.562970 -6.258347 -0.041189 -6.607847 -1.257546 -10.647512 17.949582 0.000000 0.000000 0.000000 8.798238 -0.897156 5.210755 -3.135915 1.490167 -0.209485 -2.827746 12.343014 2.810423 20.335537 -11.489315 -13.729812 0.000000 0.000000 0.000000 -4.203136 -19.484571 6.394119 -39.873176 -25.875056 3.657987 -120.755597 -81.418714 113.926253 0.000000 0.000000 0.000000 -4.759997 20.706394 6.943802 28.723398 33.462241 4.722043 -11.259209 66.512651 -2.443709 0.000000 0.000000 0.000000 
